<?xml version="1.0" encoding="UTF-8"?>
<svg id="Capa_2" data-name="Capa 2" xmlns="http://www.w3.org/2000/svg" viewBox="0 0 83.88 79.35">
  <defs>
    <style>
      .cls-1 {
        fill: #fb6daa;
      }

      .cls-2 {
        fill: #17b78f;
      }

      .cls-3 {
        fill: #6c40d0;
      }
    </style>
  </defs>
  <g id="Capa_1-2" data-name="Capa 1">
    <g id="Logo">
      <path class="cls-1" d="M5.73,51.73c-2.1-.25-3.56-.75-4.39-1.48-.83-.73-1.27-1.58-1.32-2.55-.05-.97-.01-1.98.12-3.03L4.86,5.85c.13-1.05.33-2.04.62-2.97.28-.93.9-1.67,1.86-2.2C8.3.14,9.82,0,11.92.26c1.67.2,3.02.6,4.06,1.18,1.04.59,1.74,1.38,2.1,2.4l-5.15,42.31c-.03,1.06-.21,2.06-.55,3.02-.33.95-.99,1.68-1.97,2.19-.98.51-2.54.63-4.69.37ZM20.9,37.32c-2.34-.28-4.3-1.01-5.9-2.17-1.6-1.16-2.85-2.63-3.74-4.41-.9-1.78-1.48-3.75-1.75-5.91-.27-2.16-.24-4.4.09-6.73.33-2.28.89-4.46,1.7-6.54.81-2.08,1.86-3.88,3.16-5.42,1.3-1.53,2.84-2.69,4.63-3.46,1.79-.77,3.82-1.02,6.11-.75,2.1.25,4.07,1,5.93,2.25,1.85,1.24,3.47,2.8,4.83,4.69s2.37,3.95,3.02,6.2c.64,2.25.83,4.53.55,6.81-.29,2.38-1.02,4.58-2.18,6.59-1.16,2.01-2.62,3.72-4.36,5.13-1.74,1.41-3.66,2.44-5.75,3.11-2.09.67-4.2.87-6.35.61ZM20.67,24.97c.95.12,1.85-.02,2.7-.4.84-.38,1.55-.94,2.12-1.66.57-.73.91-1.54,1.02-2.45.12-.95,0-1.85-.36-2.69-.36-.84-.9-1.54-1.63-2.08-.73-.55-1.57-.88-2.53-1-.95-.12-1.85.02-2.7.4-.84.38-1.54.93-2.08,1.63-.55.71-.88,1.54-.99,2.49-.11.91.03,1.78.41,2.62.38.84.92,1.55,1.63,2.12.7.57,1.51.91,2.42,1.02Z"/>
      <path class="cls-2" d="M78.08,36.28c-2.14.28-3.77.13-4.89-.45s-1.71-1.32-1.78-2.23l1-.13c-.19.37-.6.87-1.22,1.5-.62.64-1.47,1.26-2.55,1.86-1.08.6-2.46,1.01-4.12,1.23-2.14.28-4.26.06-6.37-.65-2.1-.72-4.04-1.83-5.81-3.34-1.77-1.51-3.25-3.29-4.44-5.33-1.19-2.05-1.94-4.26-2.25-6.64-.31-2.33-.15-4.63.47-6.89.62-2.26,1.61-4.34,2.96-6.23,1.35-1.9,2.93-3.46,4.76-4.69,1.82-1.23,3.81-1.99,5.95-2.27,1.62-.21,3.02-.15,4.2.17,1.18.33,2.15.73,2.92,1.21.76.48,1.29.9,1.58,1.24l-.79.1c-.2-1.18.16-2.17,1.1-2.98.94-.8,2.47-1.34,4.62-1.62s3.69-.16,4.66.37c.96.53,1.61,1.28,1.93,2.25.32.98.55,1.99.69,3.03l3.05,23.2c.14,1.05.18,2.08.12,3.11-.06,1.02-.49,1.9-1.29,2.64-.8.73-2.29,1.25-4.48,1.53ZM64.6,24.91c.9-.12,1.69-.46,2.37-1.04.67-.57,1.19-1.28,1.54-2.13.35-.84.46-1.72.34-2.62-.12-.95-.46-1.78-1.02-2.48-.55-.7-1.24-1.24-2.06-1.62-.83-.38-1.71-.5-2.66-.38-.95.12-1.79.48-2.51,1.06-.72.58-1.27,1.29-1.64,2.14-.37.85-.5,1.75-.37,2.7.12.9.48,1.7,1.08,2.4.6.7,1.33,1.23,2.21,1.6.87.37,1.78.49,2.73.37Z"/>
      <path class="cls-3" d="M62.02,46.93c-.6-.9-1.33-1.71-2.16-2.39,0,0,0,0,0,0h0c-1.88-1.54-4.28-2.47-6.89-2.47,0,0-5.87-.49-10.85,6.15-4.98-6.64-10.85-6.15-10.85-6.15-2.62,0-5.02.93-6.89,2.47h0s0,0,0,0c-.83.69-1.56,1.49-2.16,2.39-9.16,13.15,18.25,31.27,19.89,32.4v.02s0,0,.02-.01c.01,0,.01.01.02.01,0,0,0-.02,0-.02,1.14-.75,29.04-19.24,19.89-32.4Z"/>
    </g>
  </g>
</svg>