<?xml version="1.0" encoding="UTF-8"?>
<svg id="Capa_2" data-name="Capa 2" xmlns="http://www.w3.org/2000/svg" viewBox="0 0 334.77 80.23">
  <defs>
    <style>
      .cls-1 {
        fill: #fb6daa;
      }

      .cls-2 {
        fill: #6c40d0;
      }
    </style>
  </defs>
  <g id="Capa_1-2" data-name="Capa 1">
    <g>
      <g>
        <path class="cls-2" d="M5.73,67.07c-2.1-.25-3.56-.75-4.39-1.48-.83-.73-1.27-1.58-1.32-2.55-.05-.97-.01-1.98.12-3.03L4.86,21.2c.13-1.05.33-2.04.62-2.97.28-.93.9-1.67,1.86-2.2.96-.54,2.49-.68,4.58-.42,1.67.2,3.02.6,4.06,1.18,1.04.59,1.74,1.38,2.1,2.4l-5.15,42.31c-.03,1.06-.21,2.06-.55,3.02-.33.95-.99,1.68-1.97,2.19-.98.51-2.54.63-4.69.37ZM20.9,52.67c-2.34-.28-4.3-1.01-5.9-2.17-1.6-1.16-2.85-2.63-3.74-4.41-.9-1.78-1.48-3.75-1.75-5.91-.27-2.16-.24-4.4.09-6.73.33-2.28.89-4.46,1.7-6.54.81-2.08,1.86-3.88,3.16-5.42,1.3-1.53,2.84-2.69,4.63-3.46,1.79-.77,3.82-1.02,6.11-.75,2.1.25,4.07,1,5.93,2.25,1.85,1.24,3.47,2.8,4.83,4.69s2.37,3.95,3.02,6.2c.64,2.25.83,4.53.55,6.81-.29,2.38-1.02,4.58-2.18,6.59-1.16,2.01-2.62,3.72-4.36,5.13-1.74,1.41-3.66,2.44-5.75,3.11-2.09.67-4.2.87-6.35.61ZM20.67,40.31c.95.12,1.85-.02,2.7-.4.84-.38,1.55-.94,2.12-1.66.57-.73.91-1.54,1.02-2.45.12-.95,0-1.85-.36-2.69-.36-.84-.9-1.54-1.63-2.08-.73-.55-1.57-.88-2.53-1-.95-.12-1.85.02-2.7.4-.84.38-1.54.93-2.08,1.63-.55.71-.88,1.54-.99,2.49-.11.91.03,1.78.41,2.62.38.84.92,1.55,1.63,2.12.7.57,1.51.91,2.42,1.02Z"/>
        <path class="cls-2" d="M78.08,51.62c-2.14.28-3.77.13-4.89-.45s-1.71-1.32-1.78-2.23l1-.13c-.19.37-.6.87-1.22,1.5-.62.64-1.47,1.26-2.55,1.86-1.08.6-2.46,1.01-4.12,1.23-2.14.28-4.26.07-6.37-.65-2.1-.72-4.04-1.83-5.81-3.34s-3.25-3.29-4.44-5.33c-1.19-2.05-1.94-4.26-2.25-6.64-.31-2.33-.15-4.63.47-6.89.62-2.26,1.61-4.34,2.96-6.23s2.93-3.46,4.76-4.69c1.82-1.23,3.81-1.99,5.95-2.27,1.62-.21,3.02-.15,4.2.17,1.18.33,2.15.73,2.92,1.21.76.48,1.29.89,1.58,1.24l-.79.1c-.2-1.18.16-2.17,1.1-2.98.94-.8,2.47-1.34,4.62-1.62,2.14-.28,3.69-.16,4.66.37.96.53,1.61,1.28,1.93,2.25.32.98.55,1.99.69,3.03l3.05,23.2c.14,1.05.18,2.08.12,3.11-.06,1.02-.49,1.9-1.29,2.64-.8.73-2.29,1.25-4.48,1.53ZM64.6,40.25c.9-.12,1.69-.46,2.37-1.04.67-.57,1.19-1.28,1.54-2.13.35-.84.46-1.72.34-2.62-.12-.95-.46-1.78-1.02-2.48-.55-.7-1.24-1.24-2.06-1.62-.83-.38-1.71-.5-2.66-.38-.95.12-1.79.48-2.51,1.06-.72.58-1.27,1.29-1.64,2.14-.37.85-.5,1.75-.37,2.7.12.9.48,1.71,1.08,2.4.6.7,1.33,1.23,2.21,1.6.87.37,1.78.49,2.73.37Z"/>
        <path class="cls-2" d="M104.61,54.15c-1.54,0-2.72-.31-3.56-.94-.84-.62-1.45-1.34-1.84-2.16-.38-.82-.7-1.49-.94-2.02l-9.58-23.54c-.38-1.34-.56-2.48-.54-3.42.02-.94.36-1.74,1.01-2.41.65-.67,1.67-1.27,3.06-1.8,2.21-.96,4.02-1.24,5.44-.83,1.42.41,2.44,1.57,3.06,3.49l3.89,10.73,3.38-9.29c.19-.48.48-1.08.86-1.8.38-.72,1-1.38,1.84-1.98.84-.6,1.98-.9,3.42-.9,1.58,0,2.81.3,3.67.9.86.6,1.51,1.27,1.94,2.02.43.75.72,1.36.86,1.84l3.31,9.22,3.46-9.58c.82-2.11,1.88-3.55,3.2-4.32,1.32-.77,3.06-.67,5.22.29,2.02.91,3.41,2,4.18,3.28.77,1.27.72,2.84-.14,4.72l-9.65,23.4c-.24.58-.55,1.27-.94,2.09-.38.82-.98,1.52-1.8,2.12-.82.6-1.97.9-3.46.9s-2.71-.26-3.53-.79c-.82-.53-1.43-1.19-1.84-1.98-.41-.79-.76-1.57-1.04-2.34l-3.31-8.86-3.31,8.86c-.38,1.01-.74,1.9-1.08,2.66-.34.77-.89,1.37-1.66,1.8-.77.43-1.97.65-3.6.65Z"/>
        <g>
          <path class="cls-1" d="M247.02,20.27c-.6-.9-1.33-1.71-2.16-2.39,0,0,0,0,0,0h0c-1.88-1.54-4.28-2.47-6.89-2.47,0,0-5.87-.49-10.85,6.15-4.98-6.64-10.85-6.15-10.85-6.15-2.62,0-5.02.93-6.89,2.47h0s0,0,0,0c-.83.69-1.56,1.49-2.16,2.39-9.16,13.15,18.25,31.27,19.89,32.4v.02s0,0,.02-.01c.01,0,.01.01.02.01,0,0,0-.02,0-.02,1.14-.75,29.04-19.24,19.89-32.4Z"/>
          <path class="cls-2" d="M195.18,54.08c-2.18-.36-4.07-.78-5.67-1.24-1.6-.46-2.92-1.07-3.96-1.83-1.04-.76-1.83-1.73-2.36-2.91s-.82-2.67-.87-4.45c-.04-1.78.15-3.98.58-6.58l5.23-31.46c.18-1.09.45-2.1.8-3.04.35-.94,1.03-1.65,2.04-2.14,1.01-.49,2.57-.56,4.71-.2s3.58.92,4.35,1.71c.77.78,1.17,1.69,1.19,2.72.02,1.03-.05,2.08-.24,3.17l-5.09,30.61c-.12.71-.2,1.27-.24,1.67-.04.41-.02.71.07.92.09.21.26.35.51.41.25.07.62.14,1.1.22.61.1,1.25.29,1.91.57.66.28,1.17.88,1.53,1.79.36.91.37,2.39.03,4.42-.35,2.13-.86,3.61-1.5,4.42s-1.34,1.25-2.08,1.3c-.74.05-1.42.02-2.03-.08Z"/>
          <path class="cls-2" d="M274.3,54.36c-1.34,0-2.51-.26-3.49-.79-.98-.53-1.74-1.32-2.27-2.38l-12.74-24.26c-1.06-2.06-1.39-3.79-1.01-5.18.38-1.39,1.68-2.62,3.89-3.67,2.25-1.1,4.03-1.49,5.33-1.15,1.3.34,2.47,1.7,3.53,4.1l6.77,15.41,6.77-15.41c1.1-2.5,2.3-3.89,3.6-4.18,1.3-.29,3.05.12,5.26,1.22,2.25,1.11,3.55,2.37,3.89,3.78.33,1.42,0,3.11-1.01,5.08l-12.74,24.26c-.53,1.06-1.27,1.85-2.23,2.38s-2.14.79-3.53.79Z"/>
          <path class="cls-2" d="M321.82,51.65c-3.48.92-6.58,1.13-9.29.64-2.71-.5-5.06-1.46-7.03-2.9-1.97-1.44-3.59-3.13-4.85-5.08-1.26-1.95-2.16-3.92-2.69-5.92-.97-3.66-1.02-7.1-.13-10.32.88-3.21,2.56-5.99,5.01-8.33,2.46-2.34,5.54-4,9.25-4.99,2.88-.76,5.46-.95,7.75-.57,2.29.39,4.26,1.13,5.92,2.23,1.66,1.1,3,2.38,4.04,3.84,1.03,1.47,1.73,2.89,2.1,4.29.7,2.64.59,4.83-.34,6.57-.93,1.74-2.42,2.88-4.46,3.42l-14.82,3.93c.38.69.93,1.23,1.66,1.61.72.38,1.56.6,2.52.67.96.07,1.95-.04,2.97-.3,1.02-.27,1.91-.57,2.67-.9.76-.32,1.4-.66,1.93-1,.53-.34,1.01-.67,1.45-.98.44-.31.84-.58,1.2-.8.36-.22.73-.38,1.1-.48.83-.22,1.67-.15,2.52.23.84.37,1.69,1.04,2.54,2.01.48.52.87,1.03,1.15,1.52.28.5.48.98.6,1.44.37,1.39.11,2.7-.78,3.93-.89,1.23-2.34,2.37-4.34,3.42-2,1.05-4.56,1.99-7.67,2.82ZM310.55,31.92l7.79-2.07c.65-.17,1.09-.44,1.32-.8.23-.36.27-.81.12-1.37-.16-.6-.47-1.07-.93-1.39-.46-.33-1.02-.51-1.68-.56-.66-.05-1.41.04-2.24.26-1.11.3-2.03.78-2.75,1.44-.72.66-1.21,1.39-1.47,2.18-.26.79-.32,1.56-.17,2.32Z"/>
        </g>
        <path class="cls-2" d="M158.7,53.88c-1.34-.1-2.83-.36-4.46-.79-1.63-.43-3.2-1-4.71-1.71-1.51-.71-2.74-1.51-3.69-2.39-.95-.88-1.38-1.85-1.31-2.91.03-.48.18-1.01.44-1.59.26-.58.6-1.22,1.04-1.91.43-.69.97-1.42,1.6-2.2.37-.45.79-.79,1.26-.99.47-.21,1.02-.29,1.64-.24.86.06,1.69.3,2.47.72.79.42,1.57.88,2.35,1.4.78.51,1.6.98,2.46,1.4s1.79.67,2.8.74c.91.07,1.6.02,2.07-.14.47-.16.72-.43.74-.81.03-.38-.11-.71-.4-.97-.29-.26-.71-.5-1.25-.7-.54-.21-1.16-.41-1.87-.6-.71-.19-1.46-.42-2.26-.67-.8-.25-1.62-.55-2.46-.9-1.08-.41-2.12-.93-3.14-1.56-1.01-.62-1.91-1.42-2.68-2.39-.77-.97-1.36-2.12-1.77-3.45-.41-1.33-.55-2.93-.42-4.79.18-2.49.9-4.53,2.17-6.13,1.27-1.59,3.06-2.74,5.37-3.44,2.31-.7,5.12-.93,8.42-.7.81.06,1.62.17,2.43.32.81.16,1.62.36,2.45.61.82.25,1.64.56,2.46.93.81.37,1.64.78,2.47,1.22,1.72.89,2.55,2.02,2.5,3.39-.05,1.37-.66,2.76-1.81,4.17-.64.87-1.28,1.51-1.91,1.92-.63.41-1.26.6-1.88.55-.77-.05-1.59-.33-2.47-.83-.88-.5-1.81-1-2.78-1.5-.97-.5-1.96-.79-2.97-.86-.57-.04-1.07-.02-1.49.08-.42.09-.73.24-.93.44-.21.2-.32.45-.34.73-.04.53.11.96.45,1.3.34.34.8.62,1.38.86.58.24,1.27.45,2.05.65.78.2,1.62.41,2.52.61,1.23.28,2.49.67,3.78,1.17,1.29.5,2.45,1.18,3.5,2.02,1.05.84,1.86,1.96,2.43,3.35.57,1.39.78,3.16.63,5.31-.29,4.07-1.87,7.06-4.72,8.97-2.86,1.91-6.92,2.68-12.18,2.3Z"/>
      </g>
      <g>
        <path class="cls-2" d="M228.74,69.5h2.46l2.9-.11c.31,0,.61.03.89.08.29.06.53.22.71.48.19.27.28.72.28,1.37,0,.59-.09,1.01-.28,1.28-.19.27-.43.43-.71.5-.29.07-.59.11-.91.11l-2.67-.06h-2.75c-.48-.03-.81-.18-.99-.46-.18-.28-.27-.74-.27-1.39,0-.6.11-1.05.34-1.35.22-.3.56-.45,1.01-.45ZM231.07,80.06c-.62,0-1.06-.09-1.32-.28-.27-.19-.43-.43-.48-.74-.06-.3-.08-.61-.08-.91v-9.47c0-.45.08-.91.25-1.4.17-.48.43-.93.79-1.34.36-.41.81-.75,1.37-1.01.55-.26,1.21-.39,1.98-.39.31,0,.61.03.9.08.29.06.54.21.72.47.19.26.28.71.28,1.35s-.1,1.08-.29,1.34c-.2.27-.44.42-.74.47-.29.05-.6.07-.9.07-.1,0-.18,0-.25.02-.07.01-.13.03-.17.05-.04.02-.07.05-.09.09-.02.04-.03.08-.03.13v9.55c0,.31-.03.61-.08.89s-.22.52-.49.71c-.27.19-.72.28-1.35.28Z"/>
        <path class="cls-2" d="M241.97,80.23c-.64,0-1.29-.13-1.95-.39-.66-.26-1.26-.63-1.82-1.11-.55-.48-.99-1.06-1.32-1.74s-.49-1.44-.49-2.28c0-.77.15-1.49.44-2.16s.7-1.26,1.21-1.77,1.1-.91,1.76-1.21,1.38-.44,2.13-.44c1.04,0,1.97.25,2.81.75.84.5,1.51,1.17,2.02,2.01s.76,1.78.76,2.81c0,.88-.17,1.67-.5,2.35-.34.69-.78,1.27-1.32,1.74-.55.48-1.14.84-1.79,1.08-.65.25-1.29.37-1.92.37ZM241.92,76.38c.21,0,.45-.05.72-.16.27-.11.51-.28.71-.54.2-.25.3-.59.3-1.03,0-.35-.07-.65-.22-.9-.15-.25-.35-.45-.62-.59-.27-.14-.57-.21-.92-.21-.31,0-.59.07-.84.22-.25.15-.46.35-.61.61-.15.26-.23.56-.23.89,0,.42.1.76.29,1.01.2.25.43.43.69.54.27.1.5.16.71.16Z"/>
        <path class="cls-2" d="M253.2,80c-.67,0-1.3-.13-1.88-.4s-1.09-.64-1.52-1.12c-.43-.48-.77-1.05-1.01-1.69-.24-.64-.36-1.34-.36-2.1v-3.42c0-.32.03-.63.08-.91s.22-.53.48-.71c.27-.19.71-.28,1.34-.28s1.1.09,1.35.28c.26.19.42.43.47.72.06.29.08.6.08.92v3.4c0,.32.06.6.18.82.12.22.29.4.52.51.23.12.5.18.81.18s.57-.06.8-.19.4-.3.53-.53c.13-.22.19-.49.19-.8v-3.44c0-.32.03-.63.08-.91.06-.29.22-.52.48-.7s.71-.27,1.34-.27,1.1.09,1.35.28c.26.19.42.43.47.72s.08.6.08.9v6.91c0,.31-.03.6-.08.88s-.22.51-.48.69c-.27.18-.71.27-1.34.27-.46,0-.82-.05-1.08-.16-.26-.11-.44-.24-.56-.4-.11-.16-.18-.32-.2-.48-.02-.16-.03-.3-.03-.41l.36.1c-.22.27-.44.49-.66.66-.22.18-.48.33-.78.46-.3.13-.65.2-1.04.2Z"/>
        <path class="cls-2" d="M262.25,80.02c-.63,0-1.08-.09-1.34-.28s-.42-.43-.47-.72-.07-.59-.07-.9v-6.91c0-.31.03-.6.08-.88.06-.28.22-.51.48-.68.27-.18.71-.26,1.34-.26.57,0,.99.07,1.25.22.26.15.42.33.49.54.07.21.1.4.09.58,0,.18,0,.28.03.33l-.17.13c-.01-.21.07-.42.24-.63.17-.21.41-.4.69-.58.29-.17.59-.31.92-.42.33-.1.64-.16.93-.16.7,0,1.32.13,1.85.4.53.27.98.64,1.33,1.12.36.48.63,1.05.81,1.69.18.64.27,1.34.27,2.1v3.44c0,.31-.03.61-.08.9s-.21.53-.47.71-.71.27-1.35.27-1.1-.09-1.36-.28c-.27-.19-.43-.43-.48-.72-.06-.29-.08-.59-.08-.9v-3.42c0-.32-.06-.59-.18-.82-.12-.22-.29-.4-.5-.51s-.49-.18-.81-.18-.58.06-.81.19c-.23.13-.41.3-.54.52-.13.22-.19.49-.19.8v3.44c0,.31-.03.61-.08.9s-.21.53-.47.71c-.26.18-.71.27-1.35.27Z"/>
        <path class="cls-2" d="M276.78,80c-.63,0-1.24-.14-1.82-.43s-1.1-.68-1.55-1.18c-.46-.5-.82-1.07-1.08-1.71-.27-.64-.4-1.32-.4-2.02s.13-1.32.4-1.95.63-1.19,1.09-1.69.98-.89,1.56-1.19,1.18-.44,1.8-.44c.67,0,1.25.14,1.74.43.49.29.9.68,1.22,1.17s.56,1.05.72,1.68.25,1.28.26,1.95c.01.69-.06,1.35-.21,1.98-.15.64-.39,1.21-.71,1.72-.32.51-.73.92-1.23,1.22-.5.3-1.1.45-1.8.45ZM277.29,76.22c.27,0,.51-.07.74-.21.22-.14.41-.33.55-.56.14-.23.21-.48.21-.75,0-.28-.07-.53-.2-.76-.13-.22-.31-.41-.54-.55-.22-.14-.48-.21-.78-.21s-.54.07-.77.2c-.23.13-.41.31-.55.55-.13.23-.2.49-.2.77,0,.27.07.51.21.75.14.23.33.42.57.56s.49.21.76.21ZM280.73,80.02c-.56,0-.98-.08-1.26-.25-.28-.17-.47-.43-.57-.8v-12.5c0-.31.02-.61.05-.9.03-.29.18-.54.43-.72.25-.19.69-.28,1.32-.28s1.1.09,1.35.27.42.42.47.7c.06.29.08.59.08.91v11.65c0,.31-.03.61-.08.9s-.21.54-.47.72-.7.28-1.33.28Z"/>
        <path class="cls-2" d="M292.41,80c-.63,0-1.1-.11-1.4-.32-.3-.21-.45-.45-.43-.71h.29c-.07.1-.21.23-.41.39-.2.16-.47.31-.81.44-.34.13-.75.2-1.24.2-.63,0-1.24-.14-1.82-.43s-1.1-.68-1.55-1.19c-.46-.5-.82-1.07-1.08-1.71-.27-.64-.4-1.3-.4-2s.13-1.34.4-1.97c.27-.63.63-1.19,1.09-1.69.46-.5.98-.89,1.55-1.18.57-.29,1.18-.43,1.81-.43.48,0,.88.07,1.21.21.33.14.6.29.8.46.2.17.34.31.41.42h-.23c-.01-.35.13-.62.43-.82s.77-.29,1.4-.29,1.07.09,1.33.28c.26.19.42.43.47.72.06.29.08.59.08.9v6.82c0,.31-.03.61-.08.9-.06.29-.21.53-.47.71-.26.18-.71.27-1.35.27ZM288.94,76.2c.27,0,.51-.07.72-.21.22-.14.39-.33.53-.56.13-.23.2-.48.2-.75s-.07-.53-.2-.76c-.13-.22-.31-.41-.54-.55-.22-.14-.48-.21-.76-.21s-.54.07-.77.21c-.23.14-.42.33-.56.56-.14.23-.21.49-.21.77,0,.27.07.51.22.73.15.22.34.41.58.55.24.14.5.21.78.21Z"/>
        <path class="cls-2" d="M296.5,69.5h2.46l2.9-.11c.31,0,.61.03.89.08.29.06.52.22.71.48.19.27.28.72.28,1.37,0,.59-.09,1.01-.28,1.28-.19.27-.43.43-.71.5-.29.07-.59.11-.91.11l-2.67-.06h-2.75c-.48-.03-.8-.18-.99-.46-.18-.28-.27-.74-.27-1.39,0-.6.11-1.05.34-1.35.22-.3.56-.45,1.01-.45ZM301.29,80.04c-.74,0-1.39-.08-1.93-.25s-1-.43-1.35-.78c-.36-.35-.62-.79-.8-1.32-.18-.53-.26-1.15-.26-1.87v-8.15c0-.32.03-.62.08-.89.06-.27.22-.5.48-.67.27-.17.71-.26,1.34-.26s1.06.09,1.32.28c.27.19.43.43.48.72s.08.6.08.9v7.88c0,.15.01.28.03.39.02.1.05.19.09.24.04.06.1.1.17.13.07.03.16.04.27.04.36,0,.69.03.98.08.29.06.51.2.67.44.16.24.24.64.24,1.2,0,.63-.1,1.08-.29,1.34s-.44.42-.74.47c-.29.05-.59.07-.88.07Z"/>
        <path class="cls-2" d="M306.58,68.36c-.63,0-1.08-.09-1.34-.28-.27-.19-.42-.43-.47-.72s-.07-.59-.07-.9.03-.63.08-.91c.06-.29.22-.52.48-.7s.71-.27,1.34-.27,1.07.09,1.33.28c.26.19.42.43.47.72.06.29.08.59.08.9s-.03.61-.08.9c-.06.29-.21.53-.47.71s-.71.27-1.35.27ZM306.58,80.04c-.63,0-1.08-.09-1.34-.28-.27-.19-.42-.43-.47-.72s-.07-.6-.07-.9v-6.85c0-.31.03-.61.08-.89.06-.29.22-.53.48-.71.27-.19.71-.28,1.34-.28s1.07.09,1.33.28c.26.19.42.43.47.72.06.29.08.6.08.92v6.82c0,.31-.03.61-.08.9-.06.29-.21.53-.47.71s-.71.27-1.35.27Z"/>
        <path class="cls-2" d="M315.11,80.23c-.64,0-1.29-.13-1.95-.39-.66-.26-1.26-.63-1.82-1.11-.55-.48-.99-1.06-1.32-1.74s-.49-1.44-.49-2.28c0-.77.15-1.49.44-2.16s.7-1.26,1.21-1.77,1.1-.91,1.76-1.21,1.38-.44,2.13-.44c1.04,0,1.97.25,2.81.75.84.5,1.51,1.17,2.02,2.01s.76,1.78.76,2.81c0,.88-.17,1.67-.5,2.35-.34.69-.78,1.27-1.32,1.74-.55.48-1.14.84-1.79,1.08-.65.25-1.29.37-1.92.37ZM315.07,76.38c.21,0,.45-.05.72-.16.27-.11.51-.28.71-.54.2-.25.3-.59.3-1.03,0-.35-.07-.65-.22-.9-.15-.25-.35-.45-.62-.59-.27-.14-.57-.21-.92-.21-.31,0-.59.07-.84.22-.25.15-.46.35-.61.61-.15.26-.23.56-.23.89,0,.42.1.76.29,1.01.2.25.43.43.69.54.27.1.5.16.71.16Z"/>
        <path class="cls-2" d="M323.46,80.02c-.63,0-1.08-.09-1.34-.28s-.42-.43-.47-.72-.07-.59-.07-.9v-6.91c0-.31.03-.6.08-.88.06-.28.22-.51.48-.68.27-.18.71-.26,1.34-.26.57,0,.99.07,1.25.22.26.15.42.33.49.54.07.21.1.4.09.58,0,.18,0,.28.03.33l-.17.13c-.01-.21.07-.42.24-.63.17-.21.41-.4.69-.58.29-.17.59-.31.92-.42.33-.1.64-.16.93-.16.7,0,1.32.13,1.85.4.53.27.98.64,1.33,1.12.36.48.63,1.05.81,1.69.18.64.27,1.34.27,2.1v3.44c0,.31-.03.61-.08.9s-.21.53-.47.71-.71.27-1.35.27-1.1-.09-1.36-.28c-.27-.19-.43-.43-.48-.72-.06-.29-.08-.59-.08-.9v-3.42c0-.32-.06-.59-.18-.82-.12-.22-.29-.4-.5-.51s-.49-.18-.81-.18-.58.06-.81.19c-.23.13-.41.3-.54.52-.13.22-.19.49-.19.8v3.44c0,.31-.03.61-.08.9s-.21.53-.47.71c-.26.18-.71.27-1.35.27Z"/>
      </g>
    </g>
  </g>
</svg>